<?xml version="1.0" standalone="no"?>
<!DOCTYPE svg PUBLIC "-//W3C//DTD SVG 20010904//EN"
 "http://www.w3.org/TR/2001/REC-SVG-20010904/DTD/svg10.dtd">
<svg version="1.0" xmlns="http://www.w3.org/2000/svg"
 width="300.000000pt" height="96.000000pt" viewBox="0 0 300.000000 96.000000"
 preserveAspectRatio="xMidYMid meet">
<metadata>
Created by potrace 1.10, written by Peter Selinger 2001-2011
</metadata>
<g transform="translate(0.000000,96.000000) scale(0.100000,-0.100000)"
fill="#000000" stroke="none">
<path d="M2425 760 c-6 -29 -8 -30 -21 -13 -13 17 -13 17 -15 -2 -1 -11 -1
-28 -1 -38 1 -10 -5 -20 -13 -23 -10 -4 -13 -14 -9 -29 4 -18 2 -23 -13 -22
-10 1 -21 7 -26 12 -4 6 -12 3 -21 -7 -7 -10 -21 -18 -30 -18 -9 0 -16 -7 -16
-16 0 -8 -4 -13 -9 -10 -8 5 -9 -26 -2 -93 1 -9 10 -12 30 -8 23 5 30 2 34
-13 5 -20 37 -28 37 -10 0 6 7 10 16 10 12 0 15 6 10 24 -4 16 -1 26 9 29 8 4
13 17 11 34 -2 24 -6 28 -30 26 -27 -2 -27 -1 16 39 33 31 46 52 55 92 6 28 8
55 3 59 -4 5 -11 -5 -15 -23z m-91 -185 c8 -22 -4 -46 -23 -43 -20 4 -27 38
-9 49 19 12 25 11 32 -6z"/>
<path d="M2498 778 c-3 -7 1 -31 7 -53 7 -22 13 -34 14 -27 1 7 6 10 11 7 6
-4 10 12 10 39 0 38 -3 46 -19 46 -10 0 -21 -6 -23 -12z"/>
<path d="M2576 765 c3 -16 6 -49 6 -73 l-1 -44 20 26 c11 14 38 30 60 36 42
12 55 35 15 28 -17 -4 -23 -1 -19 9 6 16 -9 17 -25 1 -9 -9 -12 -7 -12 12 0
18 -3 21 -12 12 -9 -9 -15 -7 -25 6 -13 15 -14 14 -7 -13z"/>
<path d="M2670 690 c0 -6 -7 -10 -15 -10 -22 0 -19 -40 3 -41 11 -1 8 -4 -8
-8 -19 -6 -24 -13 -22 -32 4 -36 19 -46 45 -30 18 11 20 11 10 0 -7 -7 -13
-21 -13 -31 0 -21 -36 -43 -45 -28 -10 15 -35 12 -35 -5 0 -8 -6 -14 -12 -12
-7 1 -13 -7 -13 -18 0 -11 -4 -25 -8 -32 -11 -17 2 -63 18 -63 8 0 17 -9 20
-21 5 -15 10 -17 20 -9 10 8 14 7 17 -2 4 -10 8 -10 21 1 10 7 17 19 17 26 0
7 13 15 29 18 23 5 29 11 29 32 0 15 -7 29 -14 32 -8 3 -14 14 -14 25 0 10 -4
17 -9 13 -5 -3 -13 0 -17 6 -3 6 0 15 7 20 8 5 16 3 21 -4 5 -9 12 -7 25 6 15
15 16 21 5 38 -12 19 -11 19 8 9 30 -16 48 -6 48 24 0 38 -13 41 -52 11 -29
-22 -35 -23 -46 -10 -15 18 -6 45 14 45 7 0 17 -7 20 -16 6 -15 8 -15 26 1 24
21 27 50 5 41 -9 -3 -15 0 -15 9 0 18 -12 19 -28 3 -8 -8 -12 -8 -12 -1 0 6
-7 13 -15 17 -8 3 -15 1 -15 -4z m-12 -251 c-2 -12 -13 -26 -26 -30 -15 -6
-21 -5 -17 1 3 6 2 10 -3 10 -6 0 -8 9 -5 20 4 13 14 20 30 20 19 0 24 -4 21
-21z"/>
<path d="M2496 672 c-4 -6 -13 -9 -20 -6 -19 7 -29 -25 -14 -45 12 -14 11 -14
-4 -3 -20 16 -42 7 -34 -13 3 -8 0 -16 -7 -19 -9 -3 -8 -8 3 -18 9 -7 14 -21
12 -30 -2 -11 3 -18 12 -18 9 0 16 -4 16 -10 0 -14 26 -12 39 3 6 8 23 12 41
9 23 -3 30 0 30 12 0 9 5 16 11 16 6 0 9 6 6 13 -2 6 -15 11 -28 10 -23 -3
-23 -2 -3 6 27 12 42 33 26 39 -7 2 -12 10 -12 19 0 8 -7 13 -17 11 -10 -2
-25 5 -34 16 -11 13 -18 16 -23 8z m30 -86 c-4 -26 -41 -34 -50 -11 -8 21 14
43 36 37 11 -3 16 -12 14 -26z"/>
<path d="M327 643 c-14 -14 -6 -53 13 -63 38 -20 70 12 54 54 -6 16 -54 22
-67 9z"/>
<path d="M90 601 c0 -22 -3 -46 -6 -55 -3 -9 -1 -16 4 -16 6 0 20 20 31 45 34
77 42 58 39 -85 l-3 -130 40 0 40 0 -3 130 c-3 143 5 162 39 85 11 -25 22 -45
24 -45 3 0 5 25 5 55 l0 55 -105 0 -105 0 0 -39z"/>
<path d="M630 628 c-25 -10 -25 -11 -25 -139 l0 -129 42 0 42 0 3 73 c2 56 6
72 18 72 12 0 15 -15 15 -73 l0 -72 40 0 40 0 -5 90 c-5 93 -13 110 -53 110
-9 0 -25 -9 -34 -20 -27 -31 -32 -24 -26 40 6 66 0 71 -57 48z"/>
<path d="M1130 499 l0 -140 43 3 c57 4 60 30 12 87 -38 47 -45 68 -17 55 31
-14 99 -16 122 -4 34 18 34 5 1 -32 -33 -38 -51 -76 -44 -95 3 -8 22 -13 46
-13 l42 0 0 140 0 140 -38 0 c-56 0 -60 -25 -11 -67 32 -29 35 -33 14 -26 -32
10 -110 10 -132 -1 -31 -14 -20 13 12 29 21 11 30 23 30 40 0 22 -4 25 -40 25
l-40 0 0 -141z"/>
<path d="M345 542 c-30 -17 -30 -18 -30 -100 l0 -82 41 0 40 0 1 100 c0 108
-2 111 -52 82z"/>
<path d="M451 534 c-27 -22 -31 -32 -31 -75 0 -41 5 -54 26 -74 34 -31 102
-35 127 -7 25 27 21 39 -12 34 -61 -9 -136 63 -107 103 10 14 16 15 34 6 12
-6 27 -21 33 -32 l11 -21 24 23 c31 29 30 47 -2 59 -41 16 -71 12 -103 -16z"/>
<path d="M852 544 c-23 -16 -31 -54 -11 -54 6 0 20 11 31 26 13 16 28 24 42
22 34 -5 24 -26 -24 -50 -54 -27 -78 -68 -61 -104 8 -18 18 -24 44 -24 18 0
39 6 46 13 11 10 14 10 18 0 3 -7 21 -13 42 -13 l37 0 -3 63 c-2 34 -6 72 -9
84 -9 46 -106 69 -152 37z m86 -110 c-2 -31 -7 -39 -23 -39 -27 0 -33 50 -9
76 23 26 36 11 32 -37z"/>
<path d="M1384 526 c-26 -26 -34 -42 -34 -69 0 -43 38 -92 77 -100 58 -11 123
43 123 102 0 34 -23 72 -51 87 -45 23 -78 17 -115 -20z m81 -10 c9 -13 17 -46
18 -74 4 -95 -42 -94 -64 2 -9 40 -9 58 0 74 15 28 27 28 46 -2z"/>
<path d="M1568 458 l-3 -98 42 0 42 0 3 73 c2 56 6 72 18 72 12 0 15 -15 15
-73 l0 -72 40 0 40 0 0 72 c0 62 3 73 18 76 17 3 18 -3 15 -72 l-3 -76 41 0
40 0 -4 88 c-2 48 -9 93 -14 100 -16 18 -53 15 -73 -8 l-18 -20 -19 20 c-24
26 -53 26 -75 0 -17 -20 -34 -27 -32 -12 4 22 -4 28 -35 28 l-35 0 -3 -98z"/>
<path d="M1945 548 c-34 -19 -44 -41 -45 -91 0 -65 30 -97 93 -97 29 0 49 6
59 18 31 36 30 40 -12 35 -29 -4 -47 -1 -67 13 l-28 19 60 5 c59 5 60 6 63 36
5 56 -69 93 -123 62z m57 -40 c21 -21 21 -21 2 -35 -26 -19 -68 -13 -72 10 -9
48 32 63 70 25z"/>
<path d="M2419 481 c-8 -11 -19 -21 -26 -21 -7 0 -14 -8 -15 -17 -4 -50 -2
-83 5 -83 4 0 7 -7 7 -15 0 -17 36 -20 46 -4 5 8 10 6 16 -5 5 -9 18 -16 29
-16 11 0 17 5 14 10 -3 6 1 10 11 10 12 0 15 6 11 22 -4 12 -1 29 6 37 9 11 9
15 0 18 -7 2 -9 11 -6 19 7 20 -24 29 -45 13 -15 -13 -16 -12 -4 3 15 19 7 42
-10 32 -6 -4 -14 -1 -18 6 -6 10 -11 7 -21 -9z m45 -84 c-8 -23 -44 -22 -44 1
0 10 5 23 12 30 16 16 41 -8 32 -31z"/>
<path d="M2263 404 c3 -20 11 -42 18 -50 13 -16 39 -19 39 -4 0 6 7 10 15 10
8 0 15 6 14 13 -1 15 -17 55 -18 44 -1 -4 -14 -1 -31 8 -41 21 -43 20 -37 -21z"/>
<path d="M2417 287 c-8 -21 24 -47 56 -47 48 0 30 41 -24 55 -19 5 -28 2 -32
-8z"/>
</g>
</svg>
